<?xml version="1.0" encoding="UTF-8"?>
<!DOCTYPE svg PUBLIC "-//W3C//DTD SVG 1.1//EN" "http://www.w3.org/Graphics/SVG/1.1/DTD/svg11.dtd">
<!-- Creator: CorelDRAW -->
<svg xmlns="http://www.w3.org/2000/svg" xml:space="preserve" width="128.99mm" height="68.0726mm" version="1.1" style="shape-rendering:geometricPrecision; text-rendering:geometricPrecision; image-rendering:optimizeQuality; fill-rule:evenodd; clip-rule:evenodd"
viewBox="0 0 1824.02 962.6"
 xmlns:xlink="http://www.w3.org/1999/xlink"
 xmlns:xodm="http://www.corel.com/coreldraw/odm/2003">
 <defs>
  <style type="text/css">
   <![CDATA[
    .fil1 {fill:#FEFEFE}
    .fil0 {fill:#FEFEFE;fill-rule:nonzero}
   ]]>
  </style>
 </defs>
 <g id="Camada_x0020_1">
  <metadata id="CorelCorpID_0Corel-Layer"/>
  <g id="_2524552094304">
   <path class="fil0" d="M324.5 304.86c-10.33,0 -19.14,3.6 -26.35,10.8 -7.2,7.39 -10.8,16.21 -10.8,26.34 0,14.5 6.83,25.31 20.57,32.51 4.17,2.27 20.18,7.02 47.95,14.41 20.76,5.97 35.92,13.55 45.59,22.84 13.65,12.89 20.56,31.75 20.56,56.29 0,24.45 -8.63,45.4 -25.87,62.83 -17.35,17.15 -38.29,25.78 -62.74,25.78l-72.5 0c-6.83,0 -12.7,-2.46 -17.72,-7.49 -5.02,-4.84 -7.49,-10.71 -7.49,-17.82l0 -0.48c0,-7.11 2.46,-13.08 7.49,-18.1 5.02,-5.02 10.9,-7.48 17.72,-7.48l75.25 0c10.43,0 19.24,-3.6 26.44,-10.8 7.2,-7.21 10.8,-16.02 10.8,-26.44 0,-13.65 -6.83,-23.88 -20.57,-30.52 -3.13,-1.42 -19.14,-6.25 -48.05,-14.4 -20.47,-6.16 -35.73,-13.93 -45.49,-23.32 -13.74,-13.55 -20.56,-32.79 -20.56,-57.81 0,-24.36 8.62,-45.2 25.78,-62.45 17.44,-17.34 38.38,-26.06 62.84,-26.06l51.08 0c7.01,0 12.98,2.46 18,7.49 5.03,5.02 7.49,10.99 7.49,18.01l0 0.57c0,7.01 -2.46,12.98 -7.49,17.82 -5.02,4.93 -10.99,7.49 -18,7.49l-53.92 0zm169.83 -25.87c0,-7.01 -2.46,-12.98 -7.48,-18.01 -5.02,-5.03 -10.9,-7.49 -17.82,-7.49l-0.76 0c-6.92,0 -12.8,2.46 -17.82,7.49 -5.02,5.02 -7.49,10.99 -7.49,18.01l0 151.92c0,34.59 12.32,64.25 36.96,88.8 24.55,24.64 54.31,36.96 89.09,36.96 34.59,0 64.26,-12.32 88.9,-36.96 24.55,-24.55 36.86,-54.21 36.86,-88.8l0 -151.92c0,-7.01 -2.46,-12.98 -7.48,-18.01 -4.83,-5.03 -10.71,-7.49 -17.73,-7.49l-0.56 0c-7.02,0 -13.08,2.46 -18.1,7.49 -4.93,5.02 -7.49,10.99 -7.49,18.01l0 151.92c0,20.56 -7.2,38.1 -21.61,52.69 -14.69,14.5 -32.22,21.7 -52.79,21.7 -20.75,0 -38.38,-7.21 -52.98,-21.7 -14.5,-14.6 -21.7,-32.13 -21.7,-52.69l0 -151.92zm384.21 225.75c27.77,0 51.37,-9.76 70.79,-29.38 19.62,-19.62 29.38,-43.22 29.38,-70.8 0,-27.77 -9.76,-51.46 -29.38,-71.08 -19.43,-19.52 -43.02,-29.19 -70.79,-29.19 -27.77,0 -51.47,9.66 -71.08,29.19 -19.43,19.62 -29.19,43.31 -29.19,71.08 0,27.58 9.76,51.18 29.19,70.8 19.61,19.61 43.31,29.38 71.08,29.38zm-126.33 166.04c-6.92,0 -12.8,-2.46 -17.82,-7.49 -5.02,-5.02 -7.48,-10.9 -7.48,-17.72l0 -241.01c0.19,-41.89 15.07,-77.52 44.73,-106.9 29.38,-29.47 65.01,-44.16 106.9,-44.16 41.79,0 77.52,14.79 107.09,44.45 29.66,29.57 44.45,65.3 44.45,107.09 0,41.89 -14.79,77.62 -44.45,107.19 -29.57,29.66 -65.3,44.45 -107.09,44.45 -38.38,0 -71.74,-12.7 -100.27,-38l0 126.9c0,6.82 -2.46,12.7 -7.49,17.72 -5.02,5.02 -10.9,7.49 -17.82,7.49l-0.76 0zm444.96 -365.35c31.08,0 56.58,11.94 76.58,35.82l-175.71 79.33c-0.76,-4.74 -1.14,-9.67 -1.14,-14.69 0,-27.77 9.76,-51.46 29.19,-71.08 19.61,-19.62 43.31,-29.38 71.08,-29.38zm137.7 36.58c-12.04,-26.44 -30.33,-47.76 -54.97,-63.88 -25.02,-16.39 -52.6,-24.64 -82.74,-24.64 -41.89,0 -77.62,14.79 -107.19,44.45 -29.66,29.57 -44.45,65.3 -44.45,107.09 0,41.89 14.79,77.62 44.45,107.19 29.57,29.66 65.3,44.45 107.19,44.45 32.51,0 62.07,-9.57 88.52,-28.62 25.97,-18.48 44.07,-42.74 54.49,-72.69 2.94,-8.34 1.89,-16.02 -3.13,-23.13 -5.12,-7.2 -12.13,-10.8 -20.76,-10.8 -12.22,0 -20.37,5.78 -24.45,17.25 -6.92,19.81 -18.86,35.92 -35.82,48.33 -17.62,12.7 -37.24,19.14 -58.85,19.14 -32.6,0 -58.86,-12.79 -78.85,-38.38 15.55,-7.01 49.47,-22.36 101.88,-46.06 42.18,-19.05 76.3,-34.4 102.16,-46.06 6.45,-2.94 10.9,-7.68 13.36,-14.22 2.37,-6.63 2.09,-13.08 -0.85,-19.43zm147.56 -88.52c-31.65,0 -58.57,11.09 -80.74,33.27 -21.89,22.27 -32.98,49.19 -33.36,80.84l0 163.76c0,7.11 2.46,12.98 7.49,17.82 5.02,5.02 10.9,7.49 17.82,7.49l0.75 0c6.92,0 12.8,-2.46 17.82,-7.49 5.02,-4.84 7.49,-10.71 7.49,-17.82l0 -163.76c0.19,-17.44 6.26,-32.22 18.29,-44.45 12.22,-12.23 27.01,-18.29 44.44,-18.29l15.83 0c7.01,0 13.08,-2.56 18.01,-7.49 4.83,-4.83 7.3,-10.81 7.3,-17.82l0 -0.57c0,-7.01 -2.46,-12.98 -7.3,-18.01 -4.93,-5.03 -10.99,-7.49 -18.01,-7.49l-15.83 0z"/>
   <path class="fil1" d="M980.43 676.52c-6.48,-5.4 -13.57,-9.49 -21.28,-12.18 -7.94,-2.7 -16.42,-4.09 -25.29,-4.09 -16.58,0 -30.54,5.4 -42.03,16.04 -11.57,10.72 -17.35,23.98 -17.35,39.79 0,12.34 2.47,23.44 7.4,33.24 4.86,9.79 12.03,17.5 21.51,23.21 9.18,5.94 19.74,8.87 31.85,8.87 17.74,0 32.93,-5.71 45.65,-16.96l39.48 50.12c-5.7,6.02 -13.72,11.41 -23.9,16.04 -10.41,4.7 -21.13,8.17 -32.08,10.41 -11.03,2.24 -21.21,3.39 -30.53,3.39 -26.22,0 -49.35,-5.48 -69.32,-16.5 -20.05,-11.1 -35.39,-25.75 -46.11,-43.8 -10.72,-18.35 -16.04,-38.01 -16.04,-58.99 0,-19.12 3.24,-36.47 9.71,-51.97 6.63,-15.81 15.73,-29.38 27.3,-40.64 11.49,-11.03 25.44,-19.66 41.79,-25.99 16.27,-6.17 33.85,-9.25 52.67,-9.25 15.34,0 30.38,2.39 44.96,7.25 14.81,4.94 27.76,11.95 39.1,20.97l-37.48 51.05zm374.58 212.81l0 37.7c0,9.65 -3.67,18.25 -10.5,25.07 -6.85,6.85 -15.45,10.51 -25.15,10.51l-0.6 0c-9.7,0 -18.3,-3.66 -25.15,-10.51 -6.83,-6.82 -10.5,-15.42 -10.5,-25.07l0 -0.21 -0.42 -0 0 -206.66c0.15,-23.06 6.25,-43.8 18.27,-62.15 12.11,-18.81 28.3,-33.62 48.81,-44.26 20.51,-10.87 42.26,-16.27 65.31,-16.27 17.58,0 34.32,3.08 50.12,9.25 15.65,5.71 29.92,14.34 42.72,25.99 12.65,11.56 22.44,24.83 29.38,39.79 6.94,14.88 10.41,31.31 10.41,49.2 0,17.5 -3.55,33.85 -10.64,49.04 -6.94,15.04 -16.66,28.22 -29.15,39.56 -12.49,11.41 -26.76,20.05 -42.72,25.99 -16.12,5.86 -32.85,8.79 -50.12,8.79 -17.04,0 -33.7,-2.93 -49.97,-8.79l-5.17 -2.31 -5.17 -2.24 0 57.59 0.21 0zm336.38 -43.79c-23.06,0 -44.8,-5.47 -65.31,-16.27 -20.51,-10.87 -36.7,-25.68 -48.81,-44.49 -12.18,-19.04 -18.27,-40.25 -18.27,-63.77 0,-17.58 3.55,-34.01 10.64,-49.2 7.09,-15.27 16.81,-28.38 29.15,-39.56 12.49,-11.26 26.68,-19.97 42.64,-25.99 16.27,-6.02 32.93,-9.02 49.97,-9.02 17.12,0 33.85,3.01 50.12,9.02 15.81,5.71 30.07,14.34 42.72,25.76 12.49,11.49 22.21,24.68 29.15,39.79 7.09,15.19 10.64,31.62 10.64,49.2 0,17.97 -3.47,34.39 -10.41,49.27 -6.94,15.04 -16.73,28.38 -29.38,40.02 -12.8,11.41 -27.07,20.05 -42.72,25.99 -15.81,6.17 -32.54,9.25 -50.12,9.25zm-60.3 -124.53c0,16.12 6.01,30 18.04,41.56 11.88,11.64 25.99,17.43 42.26,17.43 16.43,0 30.54,-5.78 42.49,-17.43 12.03,-11.57 18.05,-25.45 18.05,-41.56 0,-10.49 -2.78,-20.2 -8.33,-29.15 -5.63,-8.87 -13.03,-15.96 -22.36,-21.21 -9.25,-5.24 -19.2,-7.87 -29.84,-7.87 -10.41,0 -20.28,2.62 -29.61,7.87 -9.33,5.24 -16.81,12.34 -22.36,21.21 -5.55,8.95 -8.33,18.66 -8.33,29.15zm-276.29 0.69c0,-16.12 6.01,-30 18.04,-41.56 11.88,-11.57 25.99,-17.35 42.26,-17.35 16.43,0 30.54,5.78 42.49,17.35 12.03,11.72 18.05,25.6 18.05,41.56 0,10.56 -2.78,20.2 -8.33,28.92 -5.63,8.87 -13.03,15.96 -22.36,21.28 -9.41,5.24 -19.28,7.87 -29.84,7.87 -10.56,0 -20.43,-2.62 -29.61,-7.87 -9.33,-5.32 -16.81,-12.42 -22.36,-21.28 -5.55,-8.56 -8.33,-18.2 -8.33,-28.92zm-215.99 123.84c-23.06,0 -44.8,-5.47 -65.31,-16.27 -20.51,-10.87 -36.7,-25.68 -48.81,-44.49 -12.18,-19.04 -18.27,-40.25 -18.27,-63.77 0,-17.58 3.55,-34.01 10.64,-49.2 7.09,-15.27 16.81,-28.38 29.15,-39.56 12.49,-11.26 26.68,-19.97 42.64,-25.99 16.27,-6.02 32.93,-9.02 49.97,-9.02 17.12,0 33.85,3.01 50.12,9.02 15.81,5.71 30.07,14.34 42.72,25.76 12.49,11.49 22.21,24.68 29.15,39.79 7.09,15.19 10.64,31.62 10.64,49.2 0,17.97 -3.47,34.39 -10.41,49.27 -6.94,15.04 -16.73,28.38 -29.38,40.02 -12.8,11.41 -27.07,20.05 -42.72,25.99 -15.81,6.17 -32.54,9.25 -50.12,9.25zm-60.3 -124.53c0,16.12 6.01,30 18.04,41.56 11.88,11.64 25.99,17.43 42.26,17.43 16.43,0 30.54,-5.78 42.49,-17.43 12.03,-11.57 18.05,-25.45 18.05,-41.56 0,-10.49 -2.78,-20.2 -8.33,-29.15 -5.63,-8.87 -13.03,-15.96 -22.36,-21.21 -9.25,-5.24 -19.2,-7.87 -29.84,-7.87 -10.41,0 -20.28,2.62 -29.61,7.87 -9.33,5.24 -16.81,12.34 -22.36,21.21 -5.55,8.95 -8.33,18.66 -8.33,29.15z"/>
   <path class="fil1" d="M55.86 185.72c86.14,-142.06 249.56,-208.68 403.77,-178.63 -141.34,-16.92 -286.13,47.95 -364.68,177.48 -107.02,176.5 -50.56,406.22 126.12,513.1 129.67,78.45 288.06,68.92 405.48,-11.49 -122.74,98 -298.44,114.59 -440.65,28.56 -182.16,-110.2 -240.38,-347.06 -130.03,-529.03z"/>
   <path class="fil1" d="M72.93 437.01c27.45,148.41 144.88,257.52 285.62,281.51 -125.57,-31.02 -227.74,-132.65 -252.77,-267.98 -34.1,-184.38 87.89,-361.49 272.49,-395.59 135.48,-25.02 267.03,33.95 340.92,140.01 -72.74,-122.71 -216.74,-193.26 -365.31,-165.82 -190.33,35.15 -316.11,217.76 -280.94,407.87z"/>
  </g>
 </g>
</svg>
