<?xml version="1.0" encoding="UTF-8"?>
<!DOCTYPE svg PUBLIC "-//W3C//DTD SVG 1.1//EN" "http://www.w3.org/Graphics/SVG/1.1/DTD/svg11.dtd">
<!-- Creator: CorelDRAW -->
<svg xmlns="http://www.w3.org/2000/svg" xml:space="preserve" width="40.5262mm" height="43.418mm" version="1.1" style="shape-rendering:geometricPrecision; text-rendering:geometricPrecision; image-rendering:optimizeQuality; fill-rule:evenodd; clip-rule:evenodd"
viewBox="0 0 139.59 149.55"
 xmlns:xlink="http://www.w3.org/1999/xlink"
 xmlns:xodm="http://www.corel.com/coreldraw/odm/2003">
 <defs>
  <style type="text/css">
   <![CDATA[
    .fil0 {fill:#FEFEFE}
    .fil1 {fill:#FEFEFE;fill-rule:nonzero}
   ]]>
  </style>
 </defs>
 <g id="Camada_x0020_1">
  <metadata id="CorelCorpID_0Corel-Layer"/>
  <g id="_2531546528944">
   <path class="fil0" d="M10.84 113.51c16.72,27.57 48.44,40.5 78.37,34.67 -27.43,3.28 -55.54,-9.31 -70.78,-34.45 -20.77,-34.26 -9.81,-78.85 24.48,-99.59 25.17,-15.23 55.91,-13.38 78.7,2.23 -23.82,-19.02 -57.93,-22.24 -85.53,-5.54 -35.36,21.39 -46.66,67.36 -25.24,102.68z"/>
   <path class="fil0" d="M14.16 61.94c5.33,-28.81 28.12,-49.98 55.44,-54.64 -24.37,6.02 -44.2,25.75 -49.06,52.01 -6.62,35.79 17.06,70.16 52.89,76.78 26.3,4.86 51.83,-6.59 66.17,-27.17 -14.12,23.82 -42.07,37.51 -70.91,32.18 -36.94,-6.82 -61.36,-42.27 -54.53,-79.17z"/>
   <g>
    <path class="fil1" d="M43.61 66.48c-4.22,-1.47 -4.12,-1.03 -3.56,3.57 0.66,5.41 1.44,10.7 2.05,16.16l3.7 32.98c10.71,9.83 24.99,15.84 40.67,15.84 2.15,0 4.28,-0.12 6.38,-0.34 1.87,-20.98 3.67,-42.09 6.19,-62.85 0.93,-7.68 1.94,-7.54 -6.34,-4.9 -16.09,5.15 -32.43,4.98 -48.49,-0.25l-0.61 -0.2z"/>
    <g>
     <path class="fil1" d="M111.05 28.51c-0.64,0.16 -1.3,0.07 -1.87,-0.26 -0.56,-0.32 -0.96,-0.84 -1.11,-1.46 -0.32,-1.24 0.45,-2.54 1.73,-2.9 1.38,-0.35 2.72,0.42 3.05,1.7 0.32,1.27 -0.44,2.54 -1.73,2.9l-0.07 0.02z"/>
     <path class="fil1" d="M99.66 29.81c-0.78,0.2 -1.59,0.09 -2.27,-0.31 -0.69,-0.4 -1.17,-1.03 -1.37,-1.78 -0.39,-1.54 0.53,-3.1 2.11,-3.54l0.08 -0.02c1.61,-0.4 3.24,0.54 3.64,2.1 0.39,1.54 -0.53,3.09 -2.11,3.53l-0.08 0.02z"/>
     <path class="fil1" d="M42.51 61.96c0.17,-2.72 1.83,-5.45 8.9,-4.65l0.03 0.82 0.1 -0.8c2.69,0.31 4.93,-0.71 7.8,-6.7 2.94,-6.13 7.4,-7.48 13.2,-7.61 2.69,-0.06 2.78,-0.66 2.96,-1.99 0.12,-0.88 0.27,-1.97 1.16,-3.02 1.49,-1.77 2.97,-2.02 4.16,-2.23 0.59,-0.1 1.1,-0.19 1.54,-0.45 0.54,-0.32 1.5,-2.09 1.45,-4 -0.02,-0.99 -0.34,-2.33 -1.72,-3.04 -2.08,-1.08 -3.11,-3.3 -2.45,-5.27 0.51,-1.54 2.22,-3.06 5.48,-2.69 0.28,0.03 0.57,0.08 0.87,0.14 2.45,0.49 4.26,2.09 5.1,4.49 1.12,3.21 0.36,7.6 -1.73,10.01 -1.69,1.95 -2.55,4.4 -2.13,6.1 0.21,0.87 0.74,1.47 1.55,1.79 0.2,0.08 0.4,0.13 0.59,0.15 2,0.23 3.94,-2.56 5.49,-4.8 0.2,-0.29 0.39,-0.56 0.58,-0.83 1.33,-1.87 3.72,-3.95 6.1,-3.68 0.81,0.09 1.97,0.52 2.85,2.03 2.06,3.55 -2.78,6.51 -5.67,8.29 -0.42,0.26 -0.8,0.49 -1.1,0.69 -1.36,0.9 -1.27,1.97 -0.8,4.94 0.1,0.62 0.2,1.3 0.3,2.05 0.44,3.4 -1,8.28 -1.68,10.32 -7.37,2.66 -15.81,4.04 -23.39,4.38 -9.9,0.45 -20.27,-0.76 -29.55,-4.43z"/>
    </g>
   </g>
  </g>
 </g>
</svg>
