<?xml version="1.0" encoding="UTF-8"?>
<!DOCTYPE svg PUBLIC "-//W3C//DTD SVG 1.1//EN" "http://www.w3.org/Graphics/SVG/1.1/DTD/svg11.dtd">
<!-- Creator: CorelDRAW -->
<svg xmlns="http://www.w3.org/2000/svg" xml:space="preserve" width="47.7218mm" height="48.6626mm" version="1.1" style="shape-rendering:geometricPrecision; text-rendering:geometricPrecision; image-rendering:optimizeQuality; fill-rule:evenodd; clip-rule:evenodd"
viewBox="0 0 215.09 219.33"
 xmlns:xlink="http://www.w3.org/1999/xlink"
 xmlns:xodm="http://www.corel.com/coreldraw/odm/2003">
 <defs>
  <style type="text/css">
   <![CDATA[
    .fil3 {fill:none}
    .fil0 {fill:#33CC33}
    .fil1 {fill:#660066;fill-rule:nonzero}
    .fil2 {fill:#FF6600;fill-rule:nonzero}
   ]]>
  </style>
    <clipPath id="id0">
     <path d="M126.87 21.44c48.72,0 88.22,39.5 88.22,88.22 0,48.72 -39.5,88.22 -88.22,88.22 -48.72,0 -88.22,-39.5 -88.22,-88.22 0,-48.72 39.5,-88.22 88.22,-88.22z"/>
    </clipPath>
 </defs>
 <g id="Camada_x0020_1">
  <metadata id="CorelCorpID_0Corel-Layer"/>
  <g id="_2529454034032">
   <path class="fil0" d="M15.9 166.46c24.52,40.44 71.04,59.4 114.93,50.85 -40.23,4.81 -81.45,-13.65 -103.81,-50.52 -30.47,-50.24 -14.39,-115.63 35.9,-146.06 36.91,-22.33 82,-19.62 115.42,3.27 -34.94,-27.9 -84.95,-32.62 -125.43,-8.13 -51.85,31.37 -68.43,98.79 -37.01,150.59z"/>
   <path class="fil0" d="M20.76 90.84c7.81,-42.24 41.24,-73.3 81.3,-80.13 -35.74,8.83 -64.83,37.76 -71.95,76.28 -9.71,52.49 25.02,102.9 77.56,112.6 38.57,7.12 76.01,-9.67 97.04,-39.85 -20.71,34.93 -61.69,55.01 -103.99,47.2 -54.18,-10.01 -89.98,-61.99 -79.97,-116.1z"/>
   <g>
   </g>
   <g style="clip-path:url(#id0)">
    <g>
     <path class="fil1" d="M64 97.37c-6.19,-2.15 -6.05,-1.51 -5.23,5.23 0.97,7.94 2.11,15.69 3.01,23.69 3.75,33.33 7.48,66.66 11.23,99.99 0,0 6.82,3.88 30.33,3.69 23.51,-0.19 30.27,-4.18 30.27,-4.18 3.83,-40.02 6.84,-80.72 11.69,-120.57 1.37,-11.26 2.84,-11.06 -9.29,-7.18 -23.6,7.55 -47.57,7.31 -71.11,-0.37l-0.9 -0.3z"/>
     <g>
      <path class="fil2" d="M162.91 41.68c-0.94,0.24 -1.91,0.1 -2.74,-0.37 -0.82,-0.48 -1.4,-1.24 -1.63,-2.14 -0.47,-1.82 0.66,-3.73 2.54,-4.25 2.02,-0.51 3.99,0.62 4.47,2.49 0.47,1.86 -0.65,3.72 -2.54,4.25l-0.1 0.03z"/>
      <path class="fil2" d="M146.19 43.6c-1.14,0.29 -2.33,0.13 -3.33,-0.45 -1.01,-0.58 -1.72,-1.51 -2,-2.62 -0.58,-2.26 0.78,-4.54 3.1,-5.19l0.11 -0.03c2.36,-0.59 4.75,0.79 5.34,3.07 0.58,2.26 -0.78,4.53 -3.09,5.18l-0.12 0.03z"/>
      <path class="fil2" d="M62.38 90.74c0.25,-3.99 2.68,-8 13.06,-6.81l0.04 1.2 0.15 -1.18c3.94,0.45 7.23,-1.04 11.43,-9.83 4.31,-8.99 10.85,-10.96 19.36,-11.16 3.95,-0.09 4.07,-0.98 4.34,-2.91 0.18,-1.29 0.4,-2.89 1.7,-4.44 2.18,-2.6 4.36,-2.97 6.1,-3.27 0.87,-0.15 1.62,-0.28 2.26,-0.66 0.79,-0.47 2.19,-3.06 2.13,-5.86 -0.04,-1.46 -0.5,-3.41 -2.52,-4.46 -3.04,-1.58 -4.55,-4.84 -3.59,-7.73 0.75,-2.26 3.26,-4.48 8.04,-3.94 0.41,0.05 0.84,0.11 1.28,0.2 3.59,0.72 6.25,3.06 7.48,6.58 1.64,4.7 0.53,11.15 -2.54,14.67 -2.48,2.86 -3.74,6.45 -3.12,8.95 0.31,1.27 1.08,2.15 2.27,2.62 0.29,0.12 0.58,0.19 0.87,0.22 2.94,0.34 5.78,-3.76 8.06,-7.04 0.29,-0.42 0.57,-0.83 0.85,-1.21 1.95,-2.74 5.46,-5.8 8.95,-5.4 1.19,0.14 2.89,0.76 4.17,2.98 3.02,5.21 -4.07,9.55 -8.31,12.15 -0.62,0.38 -1.17,0.71 -1.62,1.01 -1.99,1.32 -1.86,2.89 -1.18,7.24 0.14,0.91 0.3,1.91 0.44,3 0.64,4.99 -1.47,12.14 -2.47,15.14 -10.8,3.9 -23.19,5.92 -34.3,6.43 -14.52,0.66 -29.72,-1.11 -43.33,-6.5z"/>
     </g>
    </g>
   </g>
   <path class="fil3" d="M126.87 21.44c48.72,0 88.22,39.5 88.22,88.22 0,48.72 -39.5,88.22 -88.22,88.22 -48.72,0 -88.22,-39.5 -88.22,-88.22 0,-48.72 39.5,-88.22 88.22,-88.22z"/>
  </g>
 </g>
</svg>
