<?xml version="1.0" encoding="UTF-8"?>
<!DOCTYPE svg PUBLIC "-//W3C//DTD SVG 1.1//EN" "http://www.w3.org/Graphics/SVG/1.1/DTD/svg11.dtd">
<!-- Creator: CorelDRAW -->
<svg xmlns="http://www.w3.org/2000/svg" xml:space="preserve" width="61.8954mm" height="32.6645mm" version="1.1" style="shape-rendering:geometricPrecision; text-rendering:geometricPrecision; image-rendering:optimizeQuality; fill-rule:evenodd; clip-rule:evenodd"
viewBox="0 0 237.5 125.34"
 xmlns:xlink="http://www.w3.org/1999/xlink"
 xmlns:xodm="http://www.corel.com/coreldraw/odm/2003">
 <defs>
  <style type="text/css">
   <![CDATA[
    .fil2 {fill:#33CC33}
    .fil1 {fill:#FF6600}
    .fil0 {fill:#FF6600;fill-rule:nonzero}
   ]]>
  </style>
 </defs>
 <g id="Camada_x0020_1">
  <metadata id="CorelCorpID_0Corel-Layer"/>
  <g id="_2530150569312">
   <path class="fil0" d="M42.25 39.7c-1.35,0 -2.49,0.47 -3.43,1.41 -0.94,0.96 -1.41,2.11 -1.41,3.43 0,1.89 0.89,3.29 2.68,4.23 0.54,0.3 2.63,0.91 6.24,1.88 2.7,0.78 4.68,1.76 5.94,2.97 1.78,1.68 2.68,4.13 2.68,7.33 0,3.18 -1.12,5.91 -3.37,8.18 -2.26,2.23 -4.99,3.36 -8.17,3.36l-9.44 0c-0.89,0 -1.65,-0.32 -2.31,-0.97 -0.65,-0.63 -0.97,-1.39 -0.97,-2.32l0 -0.06c0,-0.93 0.32,-1.7 0.97,-2.36 0.65,-0.65 1.42,-0.97 2.31,-0.97l9.8 0c1.36,0 2.5,-0.47 3.44,-1.41 0.94,-0.94 1.41,-2.09 1.41,-3.44 0,-1.78 -0.89,-3.11 -2.68,-3.97 -0.41,-0.18 -2.49,-0.81 -6.26,-1.88 -2.67,-0.8 -4.65,-1.81 -5.92,-3.04 -1.79,-1.76 -2.68,-4.27 -2.68,-7.53 0,-3.17 1.12,-5.89 3.36,-8.13 2.27,-2.26 5,-3.39 8.18,-3.39l6.65 0c0.91,0 1.69,0.32 2.34,0.98 0.65,0.65 0.98,1.43 0.98,2.34l0 0.07c0,0.91 -0.32,1.69 -0.98,2.32 -0.65,0.64 -1.43,0.98 -2.34,0.98l-7.02 0zm22.11 -3.37c0,-0.91 -0.32,-1.69 -0.97,-2.34 -0.65,-0.65 -1.42,-0.98 -2.32,-0.98l-0.1 0c-0.9,0 -1.67,0.32 -2.32,0.98 -0.65,0.65 -0.97,1.43 -0.97,2.34l0 19.78c0,4.5 1.6,8.37 4.81,11.56 3.2,3.21 7.07,4.81 11.6,4.81 4.5,0 8.37,-1.6 11.58,-4.81 3.2,-3.2 4.8,-7.06 4.8,-11.56l0 -19.78c0,-0.91 -0.32,-1.69 -0.97,-2.34 -0.63,-0.65 -1.39,-0.98 -2.31,-0.98l-0.07 0c-0.91,0 -1.7,0.32 -2.36,0.98 -0.64,0.65 -0.98,1.43 -0.98,2.34l0 19.78c0,2.68 -0.94,4.96 -2.81,6.86 -1.91,1.89 -4.2,2.83 -6.87,2.83 -2.7,0 -5,-0.94 -6.9,-2.83 -1.89,-1.9 -2.83,-4.18 -2.83,-6.86l0 -19.78zm50.03 29.39c3.62,0 6.69,-1.27 9.22,-3.83 2.55,-2.55 3.83,-5.63 3.83,-9.22 0,-3.62 -1.27,-6.7 -3.83,-9.25 -2.53,-2.54 -5.6,-3.8 -9.22,-3.8 -3.62,0 -6.7,1.26 -9.25,3.8 -2.53,2.55 -3.8,5.64 -3.8,9.25 0,3.59 1.27,6.66 3.8,9.22 2.55,2.55 5.64,3.83 9.25,3.83zm-16.45 21.62c-0.9,0 -1.67,-0.32 -2.32,-0.97 -0.65,-0.65 -0.97,-1.42 -0.97,-2.31l0 -31.38c0.02,-5.45 1.96,-10.09 5.82,-13.92 3.83,-3.84 8.47,-5.75 13.92,-5.75 5.44,0 10.09,1.93 13.94,5.79 3.86,3.85 5.79,8.5 5.79,13.94 0,5.45 -1.93,10.11 -5.79,13.96 -3.85,3.86 -8.5,5.79 -13.94,5.79 -5,0 -9.34,-1.65 -13.06,-4.95l0 16.52c0,0.89 -0.32,1.65 -0.98,2.31 -0.65,0.65 -1.42,0.97 -2.32,0.97l-0.1 0zm57.94 -47.57c4.05,0 7.37,1.56 9.97,4.66l-22.88 10.33c-0.1,-0.62 -0.15,-1.26 -0.15,-1.91 0,-3.62 1.27,-6.7 3.8,-9.25 2.55,-2.55 5.64,-3.83 9.25,-3.83zm17.93 4.76c-1.57,-3.44 -3.95,-6.22 -7.16,-8.32 -3.26,-2.13 -6.85,-3.21 -10.77,-3.21 -5.45,0 -10.11,1.93 -13.96,5.79 -3.86,3.85 -5.79,8.5 -5.79,13.94 0,5.45 1.93,10.11 5.79,13.96 3.85,3.86 8.5,5.79 13.96,5.79 4.23,0 8.08,-1.25 11.53,-3.73 3.38,-2.41 5.74,-5.56 7.1,-9.46 0.38,-1.09 0.25,-2.09 -0.41,-3.01 -0.67,-0.94 -1.58,-1.41 -2.7,-1.41 -1.59,0 -2.65,0.75 -3.18,2.25 -0.9,2.58 -2.46,4.68 -4.66,6.29 -2.29,1.65 -4.85,2.49 -7.66,2.49 -4.24,0 -7.66,-1.67 -10.27,-5 2.02,-0.91 6.44,-2.91 13.27,-6 5.49,-2.48 9.93,-4.48 13.3,-6 0.84,-0.38 1.42,-1 1.74,-1.85 0.31,-0.86 0.27,-1.7 -0.11,-2.53zm19.21 -11.53c-4.12,0 -7.63,1.44 -10.51,4.33 -2.85,2.9 -4.29,6.4 -4.34,10.53l0 21.32c0,0.93 0.32,1.69 0.97,2.32 0.65,0.65 1.42,0.97 2.32,0.97l0.1 0c0.9,0 1.67,-0.32 2.32,-0.97 0.65,-0.63 0.97,-1.39 0.97,-2.32l0 -21.32c0.02,-2.27 0.81,-4.2 2.38,-5.79 1.59,-1.59 3.52,-2.38 5.79,-2.38l2.06 0c0.91,0 1.7,-0.33 2.34,-0.98 0.63,-0.63 0.95,-1.41 0.95,-2.32l0 -0.07c0,-0.91 -0.32,-1.69 -0.95,-2.34 -0.64,-0.65 -1.43,-0.98 -2.34,-0.98l-2.06 0z"/>
   <path class="fil1" d="M127.66 88.09c-0.84,-0.7 -1.77,-1.24 -2.77,-1.59 -1.03,-0.35 -2.14,-0.53 -3.29,-0.53 -2.16,0 -3.98,0.7 -5.47,2.09 -1.51,1.4 -2.26,3.12 -2.26,5.18 0,1.61 0.32,3.05 0.96,4.33 0.63,1.28 1.57,2.28 2.8,3.02 1.19,0.77 2.57,1.15 4.15,1.15 2.31,0 4.29,-0.74 5.94,-2.21l5.14 6.53c-0.74,0.78 -1.79,1.49 -3.11,2.09 -1.36,0.61 -2.75,1.06 -4.18,1.36 -1.44,0.29 -2.76,0.44 -3.98,0.44 -3.41,0 -6.43,-0.71 -9.03,-2.15 -2.61,-1.45 -4.61,-3.35 -6,-5.7 -1.4,-2.39 -2.09,-4.95 -2.09,-7.68 0,-2.49 0.42,-4.75 1.27,-6.77 0.86,-2.06 2.05,-3.83 3.55,-5.29 1.5,-1.44 3.31,-2.56 5.44,-3.38 2.12,-0.8 4.41,-1.2 6.86,-1.2 2,0 3.96,0.31 5.85,0.94 1.93,0.64 3.61,1.56 5.09,2.73l-4.88 6.65zm48.77 27.71l0 4.91c0,1.26 -0.48,2.38 -1.37,3.26 -0.89,0.89 -2.01,1.37 -3.27,1.37l-0.08 0c-1.26,0 -2.38,-0.48 -3.27,-1.37 -0.89,-0.89 -1.37,-2.01 -1.37,-3.26l0 -0.03 -0.05 -0 0 -26.91c0.02,-3 0.81,-5.7 2.38,-8.09 1.58,-2.45 3.69,-4.38 6.36,-5.76 2.67,-1.42 5.5,-2.12 8.5,-2.12 2.29,0 4.47,0.4 6.53,1.2 2.04,0.74 3.9,1.87 5.56,3.38 1.65,1.51 2.92,3.23 3.83,5.18 0.9,1.94 1.36,4.08 1.36,6.41 0,2.28 -0.46,4.41 -1.39,6.39 -0.9,1.96 -2.17,3.67 -3.8,5.15 -1.63,1.49 -3.48,2.61 -5.56,3.38 -2.1,0.76 -4.28,1.14 -6.53,1.14 -2.22,0 -4.39,-0.38 -6.51,-1.14l-0.67 -0.3 -0.67 -0.29 0 7.5 0.03 0zm43.8 -5.7c-3,0 -5.83,-0.71 -8.5,-2.12 -2.67,-1.42 -4.78,-3.34 -6.36,-5.79 -1.59,-2.48 -2.38,-5.24 -2.38,-8.3 0,-2.29 0.46,-4.43 1.39,-6.41 0.92,-1.99 2.19,-3.69 3.8,-5.15 1.63,-1.47 3.47,-2.6 5.55,-3.38 2.12,-0.78 4.29,-1.17 6.51,-1.17 2.23,0 4.41,0.39 6.53,1.17 2.06,0.74 3.92,1.87 5.56,3.35 1.63,1.5 2.89,3.21 3.8,5.18 0.92,1.98 1.39,4.12 1.39,6.41 0,2.34 -0.45,4.48 -1.36,6.42 -0.9,1.96 -2.18,3.69 -3.83,5.21 -1.67,1.49 -3.52,2.61 -5.56,3.38 -2.06,0.8 -4.24,1.2 -6.53,1.2zm-7.85 -16.21c0,2.1 0.78,3.91 2.35,5.41 1.55,1.52 3.38,2.27 5.5,2.27 2.14,0 3.98,-0.75 5.53,-2.27 1.57,-1.51 2.35,-3.31 2.35,-5.41 0,-1.37 -0.36,-2.63 -1.08,-3.8 -0.73,-1.15 -1.7,-2.08 -2.91,-2.76 -1.2,-0.68 -2.5,-1.02 -3.89,-1.02 -1.36,0 -2.64,0.34 -3.86,1.02 -1.21,0.68 -2.19,1.61 -2.91,2.76 -0.72,1.16 -1.08,2.43 -1.08,3.8zm-35.97 0.09c0,-2.1 0.78,-3.91 2.35,-5.41 1.55,-1.51 3.38,-2.26 5.5,-2.26 2.14,0 3.98,0.75 5.53,2.26 1.57,1.53 2.35,3.33 2.35,5.41 0,1.38 -0.36,2.63 -1.08,3.77 -0.73,1.15 -1.7,2.08 -2.91,2.77 -1.22,0.68 -2.51,1.02 -3.89,1.02 -1.38,0 -2.66,-0.34 -3.86,-1.02 -1.21,-0.69 -2.19,-1.62 -2.91,-2.77 -0.72,-1.11 -1.08,-2.37 -1.08,-3.77zm-28.12 16.12c-3,0 -5.83,-0.71 -8.5,-2.12 -2.67,-1.42 -4.78,-3.34 -6.36,-5.79 -1.59,-2.48 -2.38,-5.24 -2.38,-8.3 0,-2.29 0.46,-4.43 1.39,-6.41 0.92,-1.99 2.19,-3.69 3.8,-5.15 1.63,-1.47 3.47,-2.6 5.55,-3.38 2.12,-0.78 4.29,-1.17 6.51,-1.17 2.23,0 4.41,0.39 6.53,1.17 2.06,0.74 3.92,1.87 5.56,3.35 1.63,1.5 2.89,3.21 3.8,5.18 0.92,1.98 1.39,4.12 1.39,6.41 0,2.34 -0.45,4.48 -1.36,6.42 -0.9,1.96 -2.18,3.69 -3.83,5.21 -1.67,1.49 -3.52,2.61 -5.56,3.38 -2.06,0.8 -4.24,1.2 -6.53,1.2zm-7.85 -16.21c0,2.1 0.78,3.91 2.35,5.41 1.55,1.52 3.38,2.27 5.5,2.27 2.14,0 3.98,-0.75 5.53,-2.27 1.57,-1.51 2.35,-3.31 2.35,-5.41 0,-1.37 -0.36,-2.63 -1.08,-3.8 -0.73,-1.15 -1.7,-2.08 -2.91,-2.76 -1.2,-0.68 -2.5,-1.02 -3.89,-1.02 -1.36,0 -2.64,0.34 -3.86,1.02 -1.21,0.68 -2.19,1.61 -2.91,2.76 -0.72,1.16 -1.08,2.43 -1.08,3.8z"/>
   <path class="fil2" d="M7.27 24.18c11.22,-18.5 32.49,-27.17 52.57,-23.26 -18.4,-2.2 -37.26,6.24 -47.48,23.11 -13.94,22.98 -6.58,52.89 16.42,66.81 16.88,10.21 37.51,8.97 52.8,-1.5 -15.98,12.76 -38.86,14.92 -57.38,3.72 -23.72,-14.35 -31.3,-45.19 -16.93,-68.88z"/>
   <path class="fil2" d="M9.5 56.9c3.57,19.32 18.86,33.53 37.19,36.65 -16.35,-4.04 -29.65,-17.27 -32.91,-34.89 -4.44,-24.01 11.44,-47.07 35.48,-51.51 17.64,-3.26 34.77,4.42 44.39,18.23 -9.47,-15.98 -28.22,-25.16 -47.57,-21.59 -24.78,4.58 -41.16,28.35 -36.58,53.11z"/>
  </g>
 </g>
</svg>
