<svg xmlns="http://www.w3.org/2000/svg" width="24" height="24" viewBox="0 0 24 24" fill="none" stroke="currentColor" stroke-width="1.2" stroke-linecap="round" stroke-linejoin="round">
  <path d="M3.5 6.7 V5.3 A1.3 1.3 0 0 1 4.9 4.1 L21 6.7"></path>
  <rect x="1.5" y="7" width="21" height="13" rx="2.2"></rect>
  <path d="M3.4 10.3 L3.4 9.5 Q3.4 8.9 4 8.9 L4.8 8.9"></path>
  <path d="M19.2 8.9 L20 8.9 Q20.6 8.9 20.6 9.5 L20.6 10.3"></path>
  <path d="M20.6 16.7 L20.6 17.5 Q20.6 18.1 20 18.1 L19.2 18.1"></path>
  <path d="M4.8 18.1 L4 18.1 Q3.4 18.1 3.4 17.5 L3.4 16.7"></path>
  <circle cx="12" cy="13.5" r="3.6"></circle>
  <circle cx="5.4" cy="13.5" r="0.95"></circle>
  <circle cx="18.6" cy="13.5" r="0.95"></circle>
</svg>