<svg stroke-width="1.2" xmlns="http://www.w3.org/2000/svg" width="24" height="24" viewBox="0 0 24 24" fill="none">
  <path d="M10.31 5.00 L10.80 2.48 L13.20 2.48 L13.69 5.00 L15.20 5.55 L15.20 5.55 L17.20 3.93 L19.04 5.48 L17.80 7.73 L18.60 9.12 L18.60 9.12 L21.17 9.16 L21.59 11.53 L19.19 12.45 L18.91 14.03 L18.91 14.03 L20.85 15.72 L19.65 17.80 L17.21 16.97 L15.98 18.00 L15.98 18.00 L16.39 20.54 L14.13 21.36 L12.80 19.16 L11.20 19.16 L11.20 19.16 L9.87 21.36 L7.61 20.54 L8.02 18.00 L6.79 16.97 L6.79 16.97 L4.35 17.80 L3.15 15.72 L5.09 14.03 L4.81 12.45 L4.81 12.45 L2.41 11.53 L2.83 9.16 L5.40 9.12 L6.20 7.73 L6.20 7.73 L4.96 5.48 L6.80 3.93 L8.80 5.55 L10.31 5.00 Z" fill="none" stroke="currentColor" stroke-linecap="round" stroke-linejoin="round"></path>
  <circle cx="12" cy="12" r="3" fill="none" stroke="currentColor" stroke-linecap="round" stroke-linejoin="round"></circle>
</svg>