<svg xmlns="http://www.w3.org/2000/svg" width="24" height="24" viewBox="0 0 24 24" fill="none" stroke="currentColor" stroke-width="1.3" stroke-linecap="round" stroke-linejoin="round">
  <path d="M21.13 10.23L21.13 13.77L18.48 13.26L17.47 15.69L19.71 17.2L17.2 19.71L15.69 17.47L13.26 18.48L13.77 21.13L10.23 21.13L10.74 18.48L8.31 17.47L6.8 19.71L4.29 17.2L6.53 15.69L5.52 13.26L2.87 13.77L2.87 10.23L5.52 10.74L6.53 8.31L4.29 6.8L6.8 4.29L8.31 6.53L10.74 5.52L10.23 2.87L13.77 2.87L13.26 5.52L15.69 6.53L17.2 4.29L19.71 6.8L17.47 8.31L18.48 10.74Z"/>
  <circle cx="12" cy="12" r="3.4"/>
</svg>
