<svg xmlns="http://www.w3.org/2000/svg" width="24" height="24" viewBox="0 0 24 24" fill="none" stroke="currentColor" stroke-width="1.3" stroke-linecap="round" stroke-linejoin="round">
  <path d="M21.21 10.71L21.21 13.29L18.35 13.41L17.48 15.49L19.43 17.6L17.6 19.43L15.49 17.48L13.41 18.35L13.29 21.21L10.71 21.21L10.59 18.35L8.51 17.48L6.4 19.43L4.57 17.6L6.52 15.49L5.65 13.41L2.79 13.29L2.79 10.71L5.65 10.59L6.52 8.51L4.57 6.4L6.4 4.57L8.51 6.52L10.59 5.65L10.71 2.79L13.29 2.79L13.41 5.65L15.49 6.52L17.6 4.57L19.43 6.4L17.48 8.51L18.35 10.59Z"/>
  <circle cx="12" cy="12" r="3.4"/>
</svg>
