<svg xmlns="http://www.w3.org/2000/svg" width="24" height="24" viewBox="0 0 24 24" fill="none" stroke="currentColor" stroke-width="1.3" stroke-linecap="round" stroke-linejoin="round">
  <path d="M7.58 4.68 L8.71 3.56 L9.81 3.52 L10.79 4.42 L10.85 5.12 L11.06 5.46 L11.06 17.61 L10.85 17.95 L10.83 18.77 L10.61 19.12 L10.56 19.58 L9.93 20.21 L9.41 20.47 L8.77 20.5 L8.42 20.72 L8.07 20.7 L7.72 20.48 L7.14 20.47 L6.62 20.21 L5.57 18.94 L4.99 18.64 L4.3 18.58 L2.97 17.26 L2.92 16.79 L2.7 16.45 L2.7 15.46 L2.93 15.14"/>
  <path d="M7.58 4.68 L7.35 4.68"/>
  <path d="M7.58 4.68 L7.58 4.91"/>
  <path d="M7.35 13.05 L6.79 14.29 L5.69 15.12 L3.16 15.14"/>
  <path d="M4.79 7.24 L4.79 7"/>
  <path d="M4.79 7.24 L4.56 7.24"/>
  <path d="M4.79 7.24 L5.69 8.12 L6.16 8.18 L6.42 8.4"/>
  <path d="M4.09 10.26 L3.16 10.26"/>
  <path d="M2.93 10.02 L2.7 8.95 L3.21 7.9 L3.6 7.51 L4.12 7.25 L4.56 7.24"/>
  <path d="M2.93 10.02 L2.93 10.26"/>
  <path d="M2.93 10.02 L3.16 10.26"/>
  <path d="M2.93 15.14 L2.93 14.91"/>
  <path d="M2.93 15.14 L3.16 15.14"/>
  <path d="M2.93 10.49 L2.93 10.26"/>
  <path d="M2.93 10.49 L3.16 10.26"/>
  <path d="M2.93 10.49 L2.28 11.16 L2 11.74 L2.01 13.48 L2.93 14.91"/>
  <path d="M7.35 4.68 L6.21 4.69 L5.75 5.1 L5.4 5.23 L4.8 6.1 L4.79 7"/>
  <path d="M7.35 4.68 L7.58 4.91"/>
  <path d="M3.16 10.26 L2.93 10.26"/>
  <path d="M4.79 7 L4.56 7.24"/>
  <path d="M7.58 4.91 L7.81 5.14"/>
  <path d="M2.93 14.91 L3.16 15.14"/>
  <path d="M12.69 12 L19.33 12"/>
  <path d="M12.69 9.21 L17.11 9.21 L18.28 7.5"/>
  <path d="M12.69 14.79 L17.11 14.79 L18.3 16.5"/>
  <circle cx="14.25" cy="3.84" r="1.34"/>
  <circle cx="19.04" cy="6.4" r="1.34"/>
  <circle cx="20.66" cy="12" r="1.34"/>
  <circle cx="19.06" cy="17.6" r="1.34"/>
  <circle cx="14.25" cy="20.16" r="1.34"/>
</svg>
