<svg xmlns="http://www.w3.org/2000/svg" width="24" height="24" viewBox="0 0 24 24" fill="none" stroke="currentColor" stroke-width="1.2" stroke-linecap="round" stroke-linejoin="round">
  <path d="M2.5 8.2 V4.5 A2 2 0 0 1 4.5 2.5 H8.2"></path>
  <path d="M15.8 2.5 H19.5 A2 2 0 0 1 21.5 4.5 V8.2"></path>
  <path d="M2.5 15.8 V19.5 A2 2 0 0 0 4.5 21.5 H8.2"></path>
  <path d="M21.5 15.8 V19.5 A2 2 0 0 1 19.5 21.5 H15.8"></path>
  <rect x="5.2" y="5.2" width="4.9" height="4.9" rx="1.1"></rect>
  <rect x="13.9" y="5.2" width="4.9" height="4.9" rx="1.1"></rect>
  <rect x="5.2" y="13.9" width="4.9" height="4.9" rx="1.1"></rect>
  <path d="M14 14v4.8M14 18.8h4.8"></path>
  <circle cx="18.7" cy="14.5" r="1" fill="currentColor" stroke="none"></circle>
</svg>