<svg xmlns="http://www.w3.org/2000/svg" width="24" height="24" viewBox="0 0 24 24" fill="none" stroke="currentColor" stroke-width="1.2" stroke-linecap="round" stroke-linejoin="round">
  <path d="M10.93 1.5 L11.36 1.5M10.93 1.5 L10.5 1.93M10.93 1.5 L10.93 1.93M11.36 1.5 L12.64 1.5M11.36 1.5 L10.93 1.93M12.64 1.5 L13.07 1.5M12.64 1.5 L13.07 1.93M13.07 1.5 L13.07 1.93M13.07 1.5 L13.5 1.93M10.5 1.93 L10.93 1.93M10.5 1.93 L6.38 6.05 L6.21 6.64M13.07 1.93 L13.5 1.93M13.5 1.93 L17.63 6.05 L17.79 6.64M6.21 6.64 L5.79 7.07M6.21 6.64 L6.21 7.07M6.21 6.64 L6.64 7.07M17.79 6.64 L17.36 7.07M17.79 6.64 L17.79 7.07M17.79 6.64 L18.21 7.07M5.79 7.07 L5.2 7.23 L1.93 10.5M5.79 7.07 L6.21 7.07M6.21 7.07 L6.64 7.07M6.64 7.07 L7.02 7.1 L8.09 7.66 L11.52 10.93 L12.7 10.85 L15.91 7.66 L16.98 7.1 L17.36 7.07M17.36 7.07 L17.79 7.07M17.79 7.07 L18.21 7.07M18.21 7.07 L18.8 7.23 L21.48 9.91 L21.72 10.55 L22.07 10.93M1.93 10.5 L1.5 10.93M1.93 10.5 L1.93 10.93M1.5 10.93 L1.93 10.93M1.5 10.93 L1.5 11.36M1.93 10.93 L1.5 11.36M22.07 10.93 L22.42 10.96 L22.5 11.36M22.07 10.93 L22.5 11.36M1.5 11.36 L1.5 12.64M22.5 11.36 L22.5 12.64M1.5 12.64 L1.5 13.07M1.5 12.64 L1.93 13.07M22.5 12.64 L22.07 13.07M22.5 12.64 L22.47 12.99 L22.07 13.07M1.5 13.07 L1.93 13.07M1.5 13.07 L1.93 13.5M1.93 13.07 L1.93 13.5M22.07 13.07 L21.72 13.45 L21.48 14.09 L19.23 16.34 L18.59 16.58 L18.21 16.93M1.93 13.5 L4.77 16.34 L5.41 16.58 L5.79 16.93M6.21 16.5 L6.64 16.5M6.21 16.5 L5.79 16.93M6.21 16.5 L6.21 16.93M6.64 16.5 L7.98 16.42 L11.63 12.8 L12.05 12.64 L16.02 16.42 L17.63 16.5 L18.21 16.93M6.64 16.5 L6.21 16.93M5.79 16.93 L6.21 16.93M5.79 16.93 L6.21 17.36M6.21 16.93 L6.21 17.36M18.21 16.93 L17.87 17.3 L17.63 17.95 L14.09 21.48 L13.45 21.72 L13.07 22.07M6.21 17.36 L6.38 17.95 L9.91 21.48 L10.55 21.72 L10.93 22.07M10.93 22.07 L10.96 22.42 L11.36 22.5M10.93 22.07 L11.36 22.5M13.07 22.07 L12.64 22.5M13.07 22.07 L13.04 22.42 L12.64 22.5M11.36 22.5 L12.64 22.5"></path>
</svg>