<svg xmlns="http://www.w3.org/2000/svg" width="24" height="24" viewBox="0 0 24 24" fill="none" stroke="currentColor" stroke-width="1.2" stroke-linecap="round" stroke-linejoin="round">
  <path d="M2.7 15.4 A8 2.6 0 0 0 18.7 15.4"></path>
  <path d="M2.7 15.4 L2.7 18 A8 2.6 0 0 0 18.7 18 L18.7 15.4"></path>
  <path d="M5.3 10.2 A8 2.6 0 0 0 21.3 10.2"></path>
  <path d="M5.3 10.2 L5.3 12.8 A8 2.6 0 0 0 21.3 12.8 L21.3 10.2"></path>
  <ellipse cx="12.3" cy="5" rx="8" ry="2.6"></ellipse>
  <path d="M4.3 5 L4.3 7.6 A8 2.6 0 0 0 20.3 7.6 L20.3 5"></path>
</svg>