<svg xmlns="http://www.w3.org/2000/svg" width="24" height="24" viewBox="0 0 24 24" fill="none" stroke="currentColor" stroke-width="1.2" stroke-linecap="round" stroke-linejoin="round">
  <path d="M12 2.04c-5.5 0-9.96 4.46-9.96 9.96 0 1.76.46 3.48 1.34 5L2 22l5.1-1.34A9.93 9.93 0 0 0 12 22c5.5 0 9.96-4.46 9.96-9.96S17.5 2.04 12 2.04zm5.84 14.06c-.25.7-1.44 1.33-2 1.42-.51.08-1.16.11-1.87-.12-.43-.14-.98-.32-1.69-.62-2.97-1.28-4.9-4.27-5.05-4.47-.15-.2-1.21-1.61-1.21-3.07 0-1.46.77-2.18 1.04-2.48.27-.3.59-.37.79-.37l.57.01c.18 0 .43-.07.67.51.25.6.84 2.07.91 2.22.07.15.12.32.02.52-.1.2-.15.32-.3.5-.15.17-.31.39-.45.52-.15.15-.3.31-.13.61.17.3.77 1.27 1.65 2.06 1.13 1.01 2.09 1.32 2.39 1.47.3.15.47.13.65-.08.18-.2.74-.86.94-1.16.2-.3.4-.25.67-.15.27.1 1.72.81 2.02.96.3.15.5.22.57.35.07.12.07.72-.18 1.42z"></path>
</svg>